<svg xmlns="http://www.w3.org/2000/svg" width="150.07" height="45" viewBox="0 0 150.07 45"><defs><style>.a{fill:#006f7b;}.b{fill:#464747;}.c{fill:#00707b;}.d{fill:#60a3ab;}.e{fill:#10aad5;}.f{fill:#b1c82f;}.g{fill:#de0072;}.h{fill:#897eae;}.i{fill:#ee8323;}</style></defs><title>GIGA-logo</title><path class="a" d="M86.55,6.08h1.73v4.41c0,1.22.35,1.67,1.14,1.67s1.09-.3,1.65-1V6.08H92.8v7.39H91.38l-.13-1.08h0a3,3,0,0,1-2.38,1.26c-1.58,0-2.27-1.07-2.27-2.93Z"/><path class="a" d="M94.8,6.08h1.43l.12,1h.06A3.44,3.44,0,0,1,98.84,5.9c1.58,0,2.27,1.06,2.27,2.93v4.64H99.38V9.06c0-1.22-.34-1.67-1.16-1.67a2.29,2.29,0,0,0-1.68.92v5.16H94.8Z"/><path class="a" d="M103.34,6.08h1.74v7.39h-1.74Z"/><path class="a" d="M106.37,6.08h1.76l1.18,3.84c.19.72.42,1.47.62,2.23H110c.21-.76.42-1.51.63-2.23l1.17-3.84h1.68L111,13.47h-2Z"/><path class="a" d="M117.4,5.9c2,0,3.06,1.44,3.06,3.51a3.38,3.38,0,0,1-.08.81h-4.7a2.12,2.12,0,0,0,2.18,2.09,3,3,0,0,0,1.72-.54l.59,1.09a4.73,4.73,0,0,1-2.53.79A3.57,3.57,0,0,1,114,9.78,3.6,3.6,0,0,1,117.4,5.9ZM119,9.12c0-1.18-.5-1.88-1.51-1.88s-1.62.64-1.77,1.88Z"/><path class="a" d="M122.26,6.08h1.43l.12,1.31h.07A2.49,2.49,0,0,1,126,5.9a1.78,1.78,0,0,1,.84.15l-.3,1.5a2.54,2.54,0,0,0-.77-.12c-.58,0-1.29.41-1.74,1.52v4.52h-1.74Z"/><path class="a" d="M127.88,11.51a3.25,3.25,0,0,0,2.05.83c.8,0,1.18-.37,1.18-.89s-.8-.88-1.59-1.19c-1-.36-2.08-.91-2.08-2.15s1-2.21,2.7-2.21a4,4,0,0,1,2.46.88l-.8,1.06a2.73,2.73,0,0,0-1.63-.63c-.74,0-1.08.34-1.08.81s.73.81,1.53,1.1c1,.38,2.13.86,2.13,2.24s-1,2.29-2.88,2.29a4.65,4.65,0,0,1-2.8-1Z"/><path class="a" d="M134.46,6.08h1.74v7.39h-1.74Z"/><path class="a" d="M138.86,7.45h-1.05V6.15L139,6.08l.21-2h1.45v2h1.88V7.45h-1.88V11c0,.88.33,1.3,1,1.3a2.12,2.12,0,0,0,.77-.17l.3,1.28a4.63,4.63,0,0,1-1.51.27c-1.71,0-2.35-1.08-2.35-2.68Z"/><path class="a" d="M147,5.9c2,0,3.06,1.44,3.06,3.51a4.11,4.11,0,0,1-.07.81h-4.71a2.13,2.13,0,0,0,2.19,2.09,3.09,3.09,0,0,0,1.72-.54l.58,1.09a4.68,4.68,0,0,1-2.53.79,3.56,3.56,0,0,1-3.64-3.87A3.59,3.59,0,0,1,147,5.9Zm1.55,3.22c0-1.18-.49-1.88-1.5-1.88s-1.63.64-1.78,1.88Z"/><path class="a" d="M103.15,4a1.07,1.07,0,1,1,1.07,1A1,1,0,0,1,103.15,4Z"/><path class="a" d="M134.27,4a1.07,1.07,0,1,1,1.07,1A1,1,0,0,1,134.27,4Z"/><polygon class="a" points="147.19 5.2 145.91 5.2 147.25 3 148.99 3 147.19 5.2"/><path class="a" d="M45.53,3h2.35v8.45H52v2H45.53Z"/><path class="a" d="M53.55,3H55.9V13.46H53.55Z"/><polygon class="a" points="57.75 3.03 64.28 3.03 64.28 5.01 60.1 5.01 60.1 7.11 63.65 7.11 63.65 9.08 60.1 9.08 60.1 11.48 64.44 11.48 64.44 13.46 57.75 13.46 57.75 3.03"/><polygon class="a" points="58.53 0 61.03 0 62.32 1.92 60.45 1.92 58.53 0"/><path class="a" d="M65.24,8.31A6.15,6.15,0,0,1,65.64,6a5.06,5.06,0,0,1,1.11-1.72A4.74,4.74,0,0,1,68.38,3.2a5.49,5.49,0,0,1,2-.36,4.12,4.12,0,0,1,1.92.41,5.2,5.2,0,0,1,1.32,1l-1.3,1.45a3.24,3.24,0,0,0-.81-.57,2.46,2.46,0,0,0-1.09-.21,2.58,2.58,0,0,0-1.12.23,2.64,2.64,0,0,0-.87.66,3.25,3.25,0,0,0-.57,1.06,4.71,4.71,0,0,0-.2,1.41,3.86,3.86,0,0,0,.73,2.5,3,3,0,0,0,2.83.81,1.18,1.18,0,0,0,.49-.24V9.51H70V7.59h3.81v4.8a4.53,4.53,0,0,1-1.47.89,5.27,5.27,0,0,1-2,.37,5.55,5.55,0,0,1-2-.34,4.51,4.51,0,0,1-1.61-1,4.64,4.64,0,0,1-1.08-1.67A6.35,6.35,0,0,1,65.24,8.31Z"/><path class="a" d="M75.32,3h6.53V5H77.67v2.1h3.55v2H77.67v2.4H82v2H75.32Z"/><path class="b" d="M45.63,27.68a8.09,8.09,0,0,1,.54-3.05,6.78,6.78,0,0,1,1.46-2.27,6.25,6.25,0,0,1,2.15-1.42,7.22,7.22,0,0,1,2.63-.48,5.38,5.38,0,0,1,2.52.55,6.48,6.48,0,0,1,1.75,1.24L55,24.17a4.67,4.67,0,0,0-1.07-.76,3.8,3.8,0,0,0-2.91,0,3.28,3.28,0,0,0-1.16.87,4,4,0,0,0-.74,1.4,5.94,5.94,0,0,0-.27,1.85,5.08,5.08,0,0,0,1,3.31,3.54,3.54,0,0,0,2.91,1.17,3.23,3.23,0,0,0,.82-.1,1.58,1.58,0,0,0,.65-.32V29.26H51.88V26.73h5v6.34A6.34,6.34,0,0,1,55,34.25a7.15,7.15,0,0,1-2.66.48,7.46,7.46,0,0,1-2.61-.45,5.93,5.93,0,0,1-2.12-1.34,6.08,6.08,0,0,1-1.43-2.21A8.23,8.23,0,0,1,45.63,27.68Z"/><path class="b" d="M59.55,20.71h3.1V34.48h-3.1Z"/><path class="b" d="M65,27.68a8.09,8.09,0,0,1,.54-3.05A6.75,6.75,0,0,1,67,22.36a6.29,6.29,0,0,1,2.16-1.42,7.18,7.18,0,0,1,2.63-.48,5.38,5.38,0,0,1,2.52.55,6.57,6.57,0,0,1,1.74,1.24l-1.71,1.92a4.62,4.62,0,0,0-1.06-.76,3.82,3.82,0,0,0-2.92,0,3.25,3.25,0,0,0-1.15.87,4.16,4.16,0,0,0-.75,1.4,6.26,6.26,0,0,0-.26,1.85,5.08,5.08,0,0,0,1,3.31,3.54,3.54,0,0,0,2.9,1.17,3.31,3.31,0,0,0,.83-.1,1.72,1.72,0,0,0,.65-.32V29.26H71.29V26.73h5v6.34a6.52,6.52,0,0,1-1.95,1.18,7.12,7.12,0,0,1-2.66.48,7.46,7.46,0,0,1-2.61-.45A6,6,0,0,1,67,32.94a6.19,6.19,0,0,1-1.42-2.21A8.23,8.23,0,0,1,65,27.68Z"/><path class="b" d="M85.42,31.21H81.21l-.84,3.27H77.2l4.31-13.77h3.74l4.31,13.77h-3.3Zm-.64-2.43-.31-1.27q-.3-1-.57-2.19c-.19-.78-.37-1.53-.55-2.24h-.09l-.52,2.25c-.17.76-.36,1.49-.55,2.18l-.34,1.27Z"/><polygon class="c" points="0 23.98 9.1 18.72 0 13.46 0 23.98"/><polygon class="c" points="0 34.49 9.1 39.74 9.1 29.23 0 34.49"/><polygon class="d" points="0 13.46 9.1 18.72 9.1 8.21 0 13.46"/><polygon class="c" points="18.21 13.46 9.1 8.21 9.1 18.72 18.21 13.46"/><polygon class="c" points="9.1 29.23 18.21 34.49 18.21 23.98 9.1 29.23"/><polygon class="e" points="18.21 34.49 9.1 29.23 9.1 39.74 18.21 34.49"/><polygon class="f" points="18.21 23.98 9.1 18.72 9.1 29.23 18.21 23.98"/><polygon class="f" points="0 34.49 9.1 29.23 0 23.98 0 34.49"/><polygon class="b" points="0 2.95 0 13.46 9.1 8.21 0 2.95 0 2.95"/><polygon class="g" points="18.21 45 27.31 39.74 18.21 34.49 18.21 45"/><polygon class="d" points="27.31 18.72 36.42 13.46 27.31 8.21 27.31 18.72"/><polygon class="h" points="27.31 39.74 36.42 34.49 27.31 29.23 27.31 39.74"/><polygon class="b" points="0 23.98 9.1 29.23 9.1 18.72 0 23.98"/><polygon class="b" points="9.1 18.72 18.21 23.98 18.21 13.46 9.1 18.72"/><polygon class="b" points="9.1 39.74 18.21 45 18.21 34.49 9.1 39.74"/><polygon class="i" points="18.21 34.49 27.31 39.74 27.31 29.23 18.21 34.49"/><polygon class="c" points="36.42 2.95 27.31 8.21 36.42 13.46 36.42 2.95 36.42 2.95"/><polygon class="b" points="27.31 29.23 36.42 34.49 36.42 23.98 27.31 29.23"/></svg>